<svg width="25" height="22" viewBox="0 0 25 22" fill="none" xmlns="http://www.w3.org/2000/svg">
<g id="formkit:email" clip-path="url(#clip0_3233_7321)">
<path id="Vector" d="M22.25 20.4595H2.75C1.505 20.4595 0.5 19.4545 0.5 18.2095V4.70947C0.5 3.46447 1.505 2.45947 2.75 2.45947H22.25C23.495 2.45947 24.5 3.46447 24.5 4.70947V18.2095C24.5 19.4545 23.495 20.4595 22.25 20.4595ZM2.75 3.95947C2.33 3.95947 2 4.28947 2 4.70947V18.2095C2 18.6295 2.33 18.9595 2.75 18.9595H22.25C22.67 18.9595 23 18.6295 23 18.2095V4.70947C23 4.28947 22.67 3.95947 22.25 3.95947H2.75Z" fill="#3F3F3F"/>
<path id="Vector_2" d="M12.4999 14.3995C11.4499 14.3995 10.4899 13.9795 9.76988 13.2145L1.89488 4.84453C1.60988 4.54453 1.62488 4.06453 1.92488 3.77953C2.22488 3.49453 2.70488 3.50953 2.98988 3.80953L10.8649 12.1795C11.7199 13.0945 13.2799 13.0945 14.1349 12.1795L22.0099 3.82453C22.2949 3.52453 22.7749 3.50953 23.0749 3.79453C23.3749 4.07953 23.3899 4.55953 23.1049 4.85953L15.2299 13.2295C14.5099 13.9945 13.5499 14.4145 12.4999 14.4145V14.3995Z" fill="#3F3F3F"/>
</g>
<defs>
<clipPath id="clip0_3233_7321">
<rect width="24" height="21" fill="white" transform="translate(0.5 0.959473)"/>
</clipPath>
</defs>
</svg>
