<svg width="60" height="57" viewBox="0 0 60 57" fill="none" xmlns="http://www.w3.org/2000/svg">
<g id="Frame" clip-path="url(#clip0_2_508)">
<path id="Vector" d="M59.8887 49.1534C41.6214 49.1534 23.4654 49.1534 5.19812 49.1534C5.19812 46.5616 4.97535 44.0069 5.27238 41.4892C5.45802 39.8602 6.94317 38.8975 8.68822 38.8975C17.7848 38.8605 26.8442 38.8605 35.9407 38.8975C37.5744 38.8975 38.5026 39.8602 39.0595 41.3411C40.2105 44.4512 41.2872 45.1547 44.5546 45.1547C48.4531 45.1547 52.3516 45.1177 56.2501 45.1547C58.7006 45.1917 59.8516 46.4135 59.8887 49.1534Z" fill="#1B87EC"/>
<path id="Vector_2" d="M4.93823 49.8198C23.3912 49.8198 41.5843 49.8198 60.0001 49.8198C60.0001 50.8935 60.0372 51.8562 60.0001 52.8188C59.8516 55.2254 58.5892 56.3732 55.9902 56.4102C43.3664 56.4102 30.7798 56.4102 18.1561 56.4102C15.1115 56.4102 12.1041 56.4102 9.05952 56.4102C6.05209 56.4102 4.93823 55.2624 4.93823 52.2634C4.93823 51.4489 4.93823 50.6714 4.93823 49.8198Z" fill="#1B87EC"/>
<path id="Vector_3" d="M13.6262 11.3141C16.3737 5.46424 21.5718 1.57665 27.3638 0.984253C28.8861 6.83415 30.4084 12.6841 32.0792 19.0523C25.6559 16.3865 19.6411 13.8318 13.6262 11.3141Z" fill="#1B87EC"/>
<path id="Vector_4" d="M42.2153 20.3851C42.2153 24.5689 42.2153 28.4195 42.2153 32.5292C40.6188 32.5292 39.0222 32.6773 37.4628 32.4552C36.943 32.3811 36.2004 31.4185 36.1633 30.8261C36.0148 27.9382 36.0891 25.0502 36.1262 22.1623C36.1262 21.0886 36.646 20.4222 37.8341 20.4222C39.2079 20.3851 40.6188 20.3851 42.2153 20.3851Z" fill="#1B87EC"/>
<path id="Vector_5" d="M34.0471 19.3855C33.5273 19.0523 32.6362 18.7931 32.5248 18.3118C30.9654 12.5729 29.4803 6.79708 27.958 0.910156C29.4803 0.910156 30.8169 0.910156 32.1536 0.910156C33.0075 1.98387 32.2649 4.02023 34.3441 4.31643C34.4555 4.31643 34.4927 4.98287 34.4927 5.35312C34.4927 9.83311 34.4927 14.3131 34.4927 18.8301C34.307 19.0152 34.1956 19.2004 34.0471 19.3855Z" fill="#1B87EC"/>
<path id="Vector_6" d="M54.1709 38.7494C54.3194 40.9708 53.5026 41.8594 51.5719 41.8224C49.7154 41.8224 48.8986 40.9338 49.01 39.0456C49.0843 37.8978 49.01 36.639 49.4184 35.6023C49.7526 34.7877 50.6437 33.8621 51.4605 33.64C52.6486 33.3438 53.5397 34.1953 53.7625 35.4542C53.8367 35.9355 53.911 36.4168 53.9852 36.8981C54.0595 37.6016 54.1338 38.268 54.1709 38.7494Z" fill="#1B87EC"/>
<path id="Vector_7" d="M0.0370583 15.5349C0.0370583 14.4982 -0.111457 13.4245 0.074187 12.4248C0.185573 11.9065 0.779633 11.24 1.26231 11.0919C2.19052 10.7957 2.74745 11.3141 2.71033 12.3878C2.6732 14.6463 2.6732 16.9048 2.71033 19.2003C2.71033 20.163 2.26478 20.4592 1.33656 20.4592C0.445474 20.4592 -0.0743278 20.2 -0.0371991 19.2374C0.074187 17.9785 0.0370583 16.7567 0.0370583 15.5349Z" fill="#1B87EC"/>
<path id="Vector_8" d="M7.05444 36.9352C7.05444 35.6393 7.05444 34.4915 7.05444 33.1957C8.98514 33.1957 10.8787 33.1957 12.8465 33.1957C12.8465 34.4545 12.8465 35.6393 12.8465 36.9352C10.953 36.9352 9.09652 36.9352 7.05444 36.9352Z" fill="#1B87EC"/>
<path id="Vector_9" d="M0.705566 33.6029C2.59913 33.6029 4.34418 33.6029 6.23774 33.6029C6.23774 35.0098 6.23774 36.3057 6.23774 37.7497C4.34418 37.3424 2.562 37.0092 0.705566 36.6019C0.705566 35.6022 0.705566 34.7136 0.705566 33.6029Z" fill="#1B87EC"/>
<path id="Vector_10" d="M36.646 5.83448C36.646 9.42588 36.646 13.0173 36.646 16.6087C35.5321 17.0159 34.9381 16.8308 34.9381 15.572C34.9752 12.6841 34.9752 9.79613 34.9381 6.9082C34.9009 5.61234 35.5321 5.46424 36.646 5.83448Z" fill="#1B87EC"/>
<path id="Vector_11" d="M0.705566 32.6774C0.705566 28.8638 0.705566 25.0503 0.705566 21.2738C0.854081 21.1627 1.0026 21.0516 1.15111 20.9406C1.48527 21.3478 2.15359 21.7181 2.15359 22.1253C2.22784 25.3835 2.22784 28.6417 2.15359 31.8999C2.15359 32.3071 1.5224 32.7144 1.18824 33.1217C1.03972 32.9736 0.854081 32.8255 0.705566 32.6774Z" fill="#1B87EC"/>
<path id="Vector_12" d="M9.87622 26.5683C9.87622 24.9022 9.87622 23.2361 9.87622 21.57C10.0247 21.57 10.1733 21.57 10.3589 21.533C10.3589 23.1991 10.3589 24.8652 10.3589 26.5313C10.1733 26.5313 10.0247 26.5313 9.87622 26.5683Z" fill="#1B87EC"/>
<path id="Vector_13" d="M50.5693 42.4148C51.3119 42.4148 51.8317 42.4148 52.4258 42.4148C52.4258 43.0812 52.4258 43.6736 52.4258 44.4512C51.9431 44.5252 51.4233 44.5622 50.755 44.6733C50.7179 43.8958 50.6436 43.2664 50.5693 42.4148Z" fill="#1B87EC"/>
<path id="Vector_14" d="M40.2474 18.9041C39.6534 18.5339 39.1336 18.2377 38.6138 17.9045C39.3192 17.7193 39.9875 17.3861 40.693 17.3861C41.2128 17.3861 41.7326 17.8304 42.2524 18.0526C41.6212 18.3117 41.0271 18.5709 40.2474 18.9041Z" fill="#1B87EC"/>
<path id="Vector_15" d="M43.2549 44.0439C44.6658 44.0439 46.1138 44.0439 47.5247 44.0439C47.5247 44.155 47.5247 44.3031 47.5247 44.4142C46.0767 44.4142 44.6658 44.4142 43.2178 44.4142C43.2549 44.3031 43.2549 44.155 43.2549 44.0439Z" fill="#1B87EC"/>
<path id="Vector_16" d="M18.4901 24.4949C19.4926 24.0506 20.4951 23.236 21.5347 23.199C23.6882 23.125 24.6164 25.0132 24.0223 27.7901C22.8342 28.9008 21.4976 29.5302 19.8639 28.6787C18.0817 27.753 18.3788 26.0869 18.4901 24.4949ZM23.5025 26.0869C22.4629 25.3835 21.8317 24.6059 21.3119 24.643C20.755 24.717 19.901 25.6056 19.901 26.124C19.901 26.6423 20.7921 27.4568 21.3862 27.5309C21.906 27.5679 22.5 26.7904 23.5025 26.0869Z" fill="#1B87EC"/>
<path id="Vector_17" d="M18.3786 35.3801C18.1187 35.2691 17.7474 35.195 17.5989 34.9729C17.339 34.5656 17.2647 34.0843 17.0791 33.603C17.4875 33.4549 17.9331 33.3438 18.3415 33.1957C18.49 33.677 18.7128 34.1213 18.7499 34.6026C18.787 34.8618 18.49 35.121 18.3415 35.3801C18.3415 35.4172 18.3786 35.3801 18.3786 35.3801Z" fill="#1B87EC"/>
<g id="Group">
<path id="Vector_18" d="M31.1881 19.2003C25.5075 16.8307 19.8639 14.276 14.1089 12.0916C12.3639 11.4251 10.2475 11.6473 8.31686 11.7213C7.87131 11.7213 7.16587 12.684 7.05448 13.2764C6.75745 14.8684 6.75745 16.4605 8.53963 17.4231C10.7302 18.6079 11.5471 20.4221 11.2129 22.9398C10.9901 24.754 11.2872 26.6423 11.1386 28.4935C11.1015 29.1229 10.5817 29.9005 10.0248 30.3077C9.09656 31.0112 7.9827 31.4925 6.94309 32.0849C6.98022 32.27 7.01735 32.4181 7.09161 32.6033C9.20795 32.6033 11.2872 32.6033 13.4777 32.6033C13.4777 34.3804 13.4777 35.8985 13.4777 37.5646C12.5495 37.5646 11.7698 37.5646 10.953 37.5646C10.1362 37.5646 9.35646 37.4905 8.53963 37.6016C7.9827 37.6756 7.4629 37.9348 6.94309 38.1199C7.01735 38.194 7.12874 38.268 7.203 38.3051C16.0768 38.3051 24.9134 38.3051 33.8614 38.3051C33.8614 32.0109 33.8614 25.9758 33.8614 19.9778C32.7847 19.6816 31.9678 19.5335 31.1881 19.2003ZM17.4876 19.3484C17.9332 19.3114 18.8243 20.2 18.8614 20.7183C18.8985 21.2367 18.1931 21.8661 17.4876 22.9028C16.7451 21.9031 15.9654 21.2737 16.0396 20.7554C16.1139 20.237 16.9678 19.3854 17.4876 19.3484ZM19.3441 33.4919C19.307 33.4919 19.307 33.4919 19.3441 33.4919C19.1584 33.8991 18.9728 34.2694 18.7872 34.6396C18.8243 34.8618 18.5644 35.1209 18.4159 35.3801C18.4159 35.3801 18.4159 35.4171 18.3787 35.4171V35.3801C17.2649 36.0095 16.6708 35.232 16.5594 34.3804C16.4852 33.8621 17.0421 32.8995 17.5248 32.7514C17.6362 32.7143 17.7847 32.7143 17.9332 32.7514C18.0817 32.7884 18.2302 32.8624 18.3787 32.9365C18.453 32.9735 18.5273 33.0105 18.6015 33.0846C18.8614 33.2327 19.0842 33.3808 19.3441 33.4919ZM24.1337 27.9011C23.8738 28.2714 23.6139 28.5676 23.3169 28.8267C23.2055 28.9008 23.1312 28.9748 23.0198 29.0489C22.6114 29.3451 22.203 29.5302 21.7946 29.6043C20.9406 29.7524 20.0495 29.5302 19.1584 28.8638C17.6733 27.753 17.4134 26.0499 18.453 24.6059C18.453 24.5689 18.453 24.5319 18.453 24.4949C18.4901 24.4949 18.4901 24.4578 18.5273 24.4578C19.307 22.6806 21.1634 22.0512 22.9084 23.0139C24.0966 23.6433 24.7277 24.643 24.7277 25.7907C24.802 26.4572 24.5792 27.1977 24.1337 27.9011Z" fill="#1B87EC"/>
</g>
</g>
<defs>
<clipPath id="clip0_2_508">
<rect width="60" height="55.5" fill="white" transform="translate(0 0.910156)"/>
</clipPath>
</defs>
</svg>
