<svg width="117" height="50" viewBox="0 0 117 50" fill="none" xmlns="http://www.w3.org/2000/svg">
<g id="Group 425">
<g id="Group 423">
<g id="Group 422">
<g id="Group 404">
<g id="Group 398">
<path id="Path 8219" d="M73.2628 35.4372C72.9014 32.6172 73.5751 29.7619 75.1593 27.3995C76.7351 25.1004 79.0565 23.4139 81.7324 22.624C81.7278 22.8839 81.6274 23.1329 81.4505 23.3236C80.8641 24.2361 80.2548 25.141 79.6607 26.0612C78.6858 27.582 77.7261 29.1029 76.7435 30.5857C75.761 32.0685 74.7937 33.5285 73.8112 34.9886C73.6893 35.1711 73.5294 35.3232 73.3923 35.4904L73.2628 35.4372Z" fill="#FF8413"/>
</g>
<g id="Group 399">
<path id="Path 8220" d="M85.4572 22.259C85.3124 22.5176 85.2363 22.6925 85.1297 22.8446C84.4035 23.9599 83.6749 25.0726 82.9437 26.1828L80.4226 30.0534C79.5086 31.4602 78.5947 32.8746 77.6731 34.2814C76.7515 35.6882 75.9669 36.9125 75.1063 38.228C74.9807 38.4842 74.7887 38.7021 74.5503 38.8592C74.3365 38.6754 74.1936 38.423 74.1463 38.1453C74.099 37.8677 74.1503 37.5822 74.2913 37.3383C76.3224 34.251 78.3357 31.1636 80.3312 28.0763C81.4737 26.3121 82.6162 24.5631 83.7663 22.7989C83.8585 22.6184 84.0029 22.4696 84.1808 22.372C84.3588 22.2744 84.5619 22.2324 84.7641 22.2514C84.9545 22.2742 85.1449 22.259 85.4572 22.259Z" fill="#FF8413"/>
</g>
<g id="Group 400">
<path id="Path 8221" d="M42.4157 22.6469C42.462 22.7749 42.4729 22.9131 42.4475 23.0468C42.422 23.1806 42.3611 23.3051 42.271 23.4073C41.9663 23.9016 41.654 24.3806 41.3341 24.8673C39.0796 28.3247 36.8201 31.7846 34.5554 35.2471C34.4869 35.3536 34.4031 35.4372 34.3193 35.5437C33.93 33.3226 34.2192 31.0359 35.1495 28.9812C35.8614 27.4847 36.8737 26.1502 38.1236 25.0606C39.3736 23.9709 40.8345 23.1493 42.4157 22.6469Z" fill="#FF8413"/>
</g>
<g id="Group 401">
<path id="Path 8222" d="M35.4854 38.9352C35.2378 38.6172 35.0635 38.2485 34.9751 37.8554C34.937 37.7642 35.0284 37.6121 35.0893 37.5132C36.1861 35.8175 37.2905 34.1293 38.3949 32.4336L41.1216 28.2132C42.2945 26.3958 43.4751 24.5784 44.6404 22.761C44.7523 22.5916 44.9052 22.4533 45.085 22.3589C45.2648 22.2645 45.4656 22.2171 45.6687 22.2211C46.0114 22.2211 46.1485 22.3731 46.0343 22.7001C45.9913 22.8214 45.9324 22.9365 45.8591 23.0423C44.5643 25.0448 43.2669 27.0472 41.967 29.0497C40.8474 30.7683 39.6821 32.4792 38.5853 34.1978C37.6561 35.6122 36.7421 37.0418 35.8129 38.4714C35.7139 38.6159 35.592 38.7603 35.4854 38.9352Z" fill="#FF8413"/>
</g>
<g id="Group 403">
<g id="Group 402">
<path id="Path 8223" d="M103.644 27.8786C103.657 27.7544 103.644 27.629 103.606 27.5101C103.568 27.3912 103.506 27.2814 103.424 27.1873C103.342 27.0932 103.242 27.0169 103.129 26.9632C103.016 26.9094 102.893 26.8794 102.768 26.8748C102.482 26.8036 102.2 26.7173 101.923 26.6163C100.938 26.3235 100.055 25.7626 99.3715 24.9965C97.7289 23.2121 95.8355 21.6752 93.7505 20.434C90.503 18.3477 86.6521 17.4005 82.8056 17.7421C80.9679 17.9355 79.1786 18.4503 77.5197 19.2629C76.1438 19.9857 74.847 20.8496 73.6505 21.8408C72.2049 22.9606 70.887 24.2357 69.7204 25.6429C69.0802 26.4537 68.1483 26.983 67.1231 27.1181C65.7957 27.2892 64.4518 27.2892 63.1244 27.1181C62.6377 27.0718 62.165 26.9297 61.7336 26.7C61.3022 26.4703 60.9207 26.1575 60.611 25.7798C60.3412 25.4623 60.0512 25.1626 59.7427 24.8825C58.4241 23.5155 57.0088 22.2449 55.5079 21.0803C52.8817 19.0452 49.6891 17.8712 46.3681 17.7193C44.3397 17.656 42.3173 17.9706 40.4043 18.647C39.2956 19.0197 38.2204 19.4853 37.1901 20.0386C34.9779 21.2615 32.9646 22.8127 31.2188 24.6391C30.1778 25.8075 28.8037 26.6301 27.281 26.9965C26.6336 27.1409 26.5194 27.293 26.5194 27.9546C26.5194 28.6162 26.4508 29.3538 26.428 30.0534C26.4306 30.2749 26.4484 30.4959 26.4813 30.715C26.4881 30.9098 26.5578 31.0972 26.68 31.2493C26.8021 31.4014 26.9702 31.51 27.1592 31.559C27.3648 31.6199 27.5476 31.7187 27.7533 31.7948C27.9058 31.8469 28.0436 31.9349 28.155 32.0514C28.2663 32.1678 28.348 32.3093 28.3931 32.4639C28.5149 32.8441 28.652 33.2244 28.7586 33.6046C29.1852 35.1254 29.5203 36.7223 30.0382 38.2584C30.8827 40.9335 32.4228 43.3371 34.5015 45.2239C36.735 47.2591 39.4949 48.629 42.4684 49.1781C43.6771 49.4314 44.9142 49.5235 46.1472 49.4519C48.1373 49.331 50.0946 48.8893 51.9434 48.1439C55.1019 46.8956 57.773 44.6635 59.5599 41.7792C60.8774 39.5135 61.8382 37.0591 62.4085 34.5019C62.6522 33.5742 62.9264 32.6616 63.2082 31.7491C63.2938 31.4031 63.4887 31.0937 63.7642 30.867C64.0124 30.6639 64.3036 30.5198 64.6159 30.4455C64.9281 30.3713 65.2531 30.3688 65.5664 30.4384C65.8796 30.508 66.173 30.6478 66.4242 30.8472C66.6754 31.0466 66.878 31.3004 67.0165 31.5894C67.109 31.8108 67.1903 32.0367 67.2602 32.2662C67.5649 33.3105 67.8619 34.3523 68.1514 35.3916C68.6003 37.2051 69.2518 38.9626 70.0936 40.6309C71.2758 42.9688 73.0313 44.97 75.1966 46.4482C78.6842 48.9086 83.0025 49.8976 87.2155 49.2009C89.8306 48.7973 92.3128 47.781 94.4589 46.2353C97.3755 44.1238 99.4737 41.0729 100.4 37.5968C100.803 36.1748 101.161 34.7452 101.527 33.3004C101.573 32.8582 101.754 32.4408 102.046 32.1049C102.337 31.7689 102.725 31.5305 103.157 31.4221C103.576 31.3081 103.698 30.9963 103.751 30.5933C103.788 29.687 103.752 28.7792 103.644 27.8786ZM28.812 30.5477H28.1874C28.124 30.556 28.0596 30.5506 27.9984 30.5321C27.9372 30.5135 27.8807 30.4821 27.8326 30.44C27.7846 30.3979 27.7461 30.3461 27.7197 30.2879C27.6933 30.2298 27.6796 30.1666 27.6796 30.1028C27.6796 30.039 27.6933 29.9759 27.7197 29.9177C27.7461 29.8596 27.7846 29.8077 27.8326 29.7656C27.8807 29.7235 27.9372 29.6921 27.9984 29.6735C28.0596 29.655 28.124 29.6497 28.1874 29.658H28.812C28.8754 29.6497 28.9398 29.655 29.001 29.6735C29.0622 29.6921 29.1187 29.7235 29.1667 29.7656C29.2148 29.8077 29.2533 29.8596 29.2797 29.9177C29.3061 29.9759 29.3197 30.039 29.3197 30.1028C29.3197 30.1666 29.3061 30.2298 29.2797 30.2879C29.2533 30.3461 29.2148 30.3979 29.1667 30.44C29.1187 30.4821 29.0622 30.5135 29.001 30.5321C28.9398 30.5506 28.8754 30.556 28.812 30.5477ZM28.812 28.8443H28.1874C28.124 28.8526 28.0596 28.8473 27.9984 28.8287C27.9372 28.8102 27.8807 28.7788 27.8326 28.7367C27.7846 28.6946 27.7461 28.6427 27.7197 28.5846C27.6933 28.5264 27.6796 28.4633 27.6796 28.3995C27.6796 28.3356 27.6933 28.2725 27.7197 28.2144C27.7461 28.1562 27.7846 28.1043 27.8326 28.0622C27.8807 28.0201 27.9372 27.9887 27.9984 27.9702C28.0596 27.9516 28.124 27.9463 28.1874 27.9546H28.812C28.8754 27.9463 28.9398 27.9516 29.001 27.9702C29.0622 27.9887 29.1187 28.0201 29.1667 28.0622C29.2148 28.1043 29.2533 28.1562 29.2797 28.2144C29.3061 28.2725 29.3197 28.3356 29.3197 28.3995C29.3197 28.4633 29.3061 28.5264 29.2797 28.5846C29.2533 28.6427 29.2148 28.6946 29.1667 28.7367C29.1187 28.7788 29.0622 28.8102 29.001 28.8287C28.9398 28.8473 28.8754 28.8526 28.812 28.8443ZM45.7131 47.2238C43.0046 47.1967 40.3649 46.3693 38.127 44.8459C35.8891 43.3225 34.1533 41.1714 33.1387 38.6641C32.1241 36.1567 31.8762 33.4055 32.4261 30.7576C32.9761 28.1098 34.2993 25.6838 36.2289 23.786C38.1584 21.8882 40.6077 20.6036 43.2678 20.0942C45.9279 19.5848 48.6795 19.8735 51.1754 20.9238C53.6713 21.9742 55.7997 23.7392 57.2919 25.996C58.7841 28.2528 59.5733 30.9004 59.5599 33.6046C59.551 35.4079 59.1852 37.1916 58.4836 38.8534C57.7821 40.5151 56.7585 42.022 55.4718 43.2876C54.1851 44.5532 52.6605 45.5524 50.9858 46.2279C49.3111 46.9034 47.5192 47.2419 45.7131 47.2238ZM84.664 47.2238C82.8357 47.2817 81.0143 46.9737 79.3071 46.318C77.5998 45.6623 76.0413 44.6721 74.7233 43.4058C73.4052 42.1394 72.3543 40.6226 71.6325 38.9445C70.9106 37.2665 70.5324 35.4612 70.5201 33.635C70.4323 30.8469 71.179 28.096 72.6647 25.7337C74.1504 23.3713 76.3078 21.5048 78.8611 20.3724C81.4145 19.2401 84.248 18.8933 86.9997 19.3765C89.7514 19.8596 92.2964 21.1508 94.3096 23.085C96.3228 25.0191 97.7128 27.5086 98.3021 30.2353C98.8913 32.962 98.6531 35.8021 97.6178 38.393C96.5826 40.9839 94.7972 43.2078 92.4898 44.7808C90.1825 46.3537 87.4579 47.2043 84.664 47.2238ZM101.885 30.5629H101.26C101.197 30.5712 101.133 30.5658 101.071 30.5473C101.01 30.5287 100.954 30.4973 100.906 30.4552C100.858 30.4131 100.819 30.3613 100.793 30.3031C100.766 30.245 100.753 30.1819 100.753 30.118C100.753 30.0542 100.766 29.9911 100.793 29.9329C100.819 29.8748 100.858 29.8229 100.906 29.7808C100.954 29.7387 101.01 29.7073 101.071 29.6887C101.133 29.6702 101.197 29.6649 101.26 29.6732H101.885C101.948 29.6649 102.013 29.6702 102.074 29.6887C102.135 29.7073 102.192 29.7387 102.24 29.7808C102.288 29.8229 102.326 29.8748 102.353 29.9329C102.379 29.9911 102.393 30.0542 102.393 30.118C102.393 30.1819 102.379 30.245 102.353 30.3031C102.326 30.3613 102.288 30.4131 102.24 30.4552C102.192 30.4973 102.135 30.5287 102.074 30.5473C102.013 30.5658 101.948 30.5712 101.885 30.5629ZM101.885 28.8595H101.26C101.197 28.8678 101.133 28.8625 101.071 28.8439C101.01 28.8254 100.954 28.794 100.906 28.7519C100.858 28.7098 100.819 28.6579 100.793 28.5998C100.766 28.5416 100.753 28.4785 100.753 28.4147C100.753 28.3508 100.766 28.2877 100.793 28.2296C100.819 28.1714 100.858 28.1195 100.906 28.0774C100.954 28.0353 101.01 28.0039 101.071 27.9854C101.133 27.9668 101.197 27.9615 101.26 27.9698H101.885C101.948 27.9615 102.013 27.9668 102.074 27.9854C102.135 28.0039 102.192 28.0353 102.24 28.0774C102.288 28.1195 102.326 28.1714 102.353 28.2296C102.379 28.2877 102.393 28.3508 102.393 28.4147C102.393 28.4785 102.379 28.5416 102.353 28.5998C102.326 28.6579 102.288 28.7098 102.24 28.7519C102.192 28.794 102.135 28.8254 102.074 28.8439C102.013 28.8625 101.948 28.8678 101.885 28.8595Z" fill="#6C6C6C"/>
</g>
</g>
</g>
<g id="Group 405">
<path id="Rectangle 240" d="M5.19448 3.90234H1.1044C0.494456 3.90234 0 4.396 0 5.00496V48.3645C0 48.9735 0.494456 49.4671 1.1044 49.4671H5.19448C5.80442 49.4671 6.29887 48.9735 6.29887 48.3645V5.00496C6.29887 4.396 5.80442 3.90234 5.19448 3.90234Z" fill="#90BDFF"/>
<path id="Path 8224" d="M19.849 16.4114H24.5179C24.6731 16.3952 24.8299 16.4196 24.9728 16.4823C25.1157 16.5449 25.2398 16.6437 25.3329 16.7688C25.4852 17.0121 25.4319 17.3239 25.1653 17.7117L16.0255 32.2282V32.4868L25.927 48.1744C26.0301 48.2991 26.0944 48.4513 26.112 48.6121C26.1296 48.7729 26.0997 48.9353 26.026 49.0793C25.9196 49.2249 25.7754 49.3387 25.6089 49.4084C25.4425 49.4781 25.2601 49.501 25.0815 49.4747H20.862C20.4302 49.5018 19.9989 49.414 19.6122 49.2203C19.2255 49.0266 18.8972 48.7339 18.6608 48.3721L9.52096 33.3993C9.37084 33.1322 9.29199 32.8311 9.29199 32.5248C9.29199 32.2185 9.37084 31.9174 9.52096 31.6503L17.9753 17.4531C18.1566 17.1201 18.429 16.8453 18.7607 16.6608C19.0925 16.4764 19.4699 16.3899 19.849 16.4114Z" fill="#90BDFF"/>
</g>
<g id="Group 406">
<path id="Path 8225" d="M115.885 49.5051H111.795C111.645 49.5268 111.492 49.5132 111.348 49.4655C111.204 49.4177 111.073 49.3371 110.966 49.2301C110.859 49.123 110.778 48.9925 110.73 48.8488C110.683 48.7052 110.669 48.5524 110.691 48.4025V5.05819C110.669 4.90836 110.683 4.75555 110.73 4.61189C110.778 4.46823 110.859 4.33769 110.966 4.23064C111.073 4.1236 111.204 4.043 111.348 3.99524C111.492 3.94749 111.645 3.93391 111.795 3.95557H115.885C116.035 3.93391 116.188 3.94749 116.332 3.99524C116.476 4.043 116.607 4.1236 116.714 4.23064C116.821 4.33769 116.902 4.46823 116.95 4.61189C116.998 4.75555 117.011 4.90836 116.99 5.05819V48.4025C117.011 48.5524 116.998 48.7052 116.95 48.8488C116.902 48.9925 116.821 49.123 116.714 49.2301C116.607 49.3371 116.476 49.4177 116.332 49.4655C116.188 49.5132 116.035 49.5268 115.885 49.5051Z" fill="#90BDFF"/>
</g>
<g id="Group 421">
<g id="Group 408">
<g id="Group 407">
<path id="Path 8226" d="M31.9969 11.3393C31.9421 11.3428 31.8871 11.3344 31.8358 11.3148C31.7846 11.2951 31.7382 11.2645 31.6998 11.2253C31.6628 11.1884 31.6336 11.1446 31.614 11.0962C31.5944 11.0479 31.5847 10.9961 31.5856 10.9439V4.92132C31.5827 4.87022 31.5899 4.81905 31.6069 4.77076C31.6239 4.72247 31.6503 4.67802 31.6846 4.63996C31.7252 4.60163 31.7731 4.57178 31.8254 4.55219C31.8777 4.5326 31.9334 4.52366 31.9893 4.5259C32.0429 4.523 32.0965 4.5317 32.1464 4.55138C32.1964 4.57107 32.2415 4.60128 32.2787 4.63996C32.3147 4.67715 32.3427 4.72129 32.3611 4.76967C32.3794 4.81804 32.3876 4.86965 32.3853 4.92132V10.9439C32.386 11.0476 32.348 11.1479 32.2787 11.2253C32.2032 11.2985 32.1021 11.3394 31.9969 11.3393ZM36.3764 4.49548C36.4265 4.49633 36.4758 4.50839 36.5206 4.53076C36.5654 4.55313 36.6046 4.58525 36.6353 4.62476C36.7036 4.69662 36.7418 4.79185 36.742 4.89091C36.7411 4.93942 36.7306 4.98727 36.7109 5.03166C36.6913 5.07606 36.663 5.1161 36.6277 5.14945L32.3168 9.20253L32.2482 8.29762L36.0565 4.63996C36.0972 4.59657 36.147 4.56253 36.2022 4.54021C36.2574 4.51789 36.3169 4.50782 36.3764 4.51069V4.49548ZM36.3764 11.3393C36.3202 11.3396 36.2647 11.3267 36.2144 11.3016C36.1641 11.2765 36.1204 11.2399 36.087 11.1948L33.4821 7.9022L34.0914 7.28625L36.7267 10.6625C36.7836 10.7399 36.8155 10.8328 36.8181 10.9287C36.8209 10.9874 36.8092 11.0458 36.7839 11.0989C36.7587 11.1519 36.7207 11.1979 36.6734 11.2329C36.5988 11.3006 36.5063 11.3455 36.4068 11.3621L36.3764 11.3393Z" fill="#6C6C6C"/>
</g>
</g>
<g id="Group 410">
<g id="Group 409">
<path id="Path 8227" d="M43.796 10.9439C43.7968 10.9967 43.7864 11.0492 43.7654 11.0977C43.7444 11.1462 43.7133 11.1897 43.6741 11.2253C43.6372 11.2622 43.5933 11.2914 43.5449 11.311C43.4964 11.3306 43.4445 11.3402 43.3923 11.3393C43.3375 11.3428 43.2825 11.3344 43.2313 11.3148C43.18 11.2951 43.1336 11.2645 43.0953 11.2253C43.0582 11.1884 43.029 11.1445 43.0094 11.0962C42.9898 11.0479 42.9801 10.9961 42.981 10.9439V4.92132C42.9821 4.86806 42.9941 4.81559 43.0164 4.76718C43.0387 4.71877 43.0707 4.67546 43.1105 4.63996C43.1511 4.60162 43.199 4.57178 43.2513 4.55219C43.3036 4.5326 43.3593 4.52366 43.4151 4.52589C43.4674 4.52486 43.5194 4.53438 43.5679 4.55389C43.6165 4.57339 43.6605 4.60248 43.6975 4.63941C43.7345 4.67633 43.7636 4.72034 43.7832 4.76878C43.8027 4.81722 43.8122 4.86911 43.8112 4.92132L43.796 10.9439ZM43.438 4.10006C43.4009 4.10277 43.3636 4.09811 43.3283 4.08637C43.293 4.07462 43.2604 4.05601 43.2324 4.03162C43.2105 4.00961 43.1932 3.9835 43.1814 3.95479C43.1696 3.92608 43.1637 3.89534 43.1638 3.86432V3.75786L43.2552 3.65901L44.1083 2.95941C44.1573 2.91792 44.211 2.8822 44.2682 2.85296C44.3311 2.84084 44.3957 2.84084 44.4586 2.85296C44.5541 2.85368 44.646 2.88879 44.7176 2.95181C44.7548 2.98363 44.7844 3.02338 44.8041 3.06813C44.8239 3.11287 44.8334 3.16147 44.8318 3.21036C44.8314 3.28556 44.8104 3.35921 44.7709 3.42328C44.7241 3.49361 44.658 3.54904 44.5805 3.58297L43.6208 4.06964L43.5142 4.11527L43.438 4.10006Z" fill="#6C6C6C"/>
</g>
</g>
<g id="Group 412">
<g id="Group 411">
<path id="Path 8228" d="M55.4483 4.52589C55.4968 4.52228 55.5455 4.53002 55.5905 4.54851C55.6354 4.56699 55.6754 4.5957 55.7073 4.63235C55.7402 4.6667 55.7659 4.70727 55.7829 4.75166C55.7999 4.79606 55.8079 4.84339 55.8063 4.89089V10.9287C55.809 10.9845 55.8003 11.0402 55.7806 11.0925C55.761 11.1448 55.7308 11.1926 55.6921 11.2329C55.6096 11.3036 55.5038 11.3416 55.395 11.3393C55.3397 11.3496 55.2828 11.3496 55.2275 11.3393C55.1775 11.3199 55.133 11.2886 55.098 11.2481L50.9165 5.73496L51.1145 5.62851V11.0123C51.1155 11.0604 51.1066 11.1082 51.0882 11.1527C51.0699 11.1972 51.0425 11.2374 51.0079 11.2709C50.9731 11.3054 50.9314 11.3321 50.8854 11.3492C50.8394 11.3663 50.7903 11.3733 50.7413 11.3697C50.6936 11.3727 50.6458 11.3653 50.6011 11.3483C50.5565 11.3312 50.516 11.3048 50.4824 11.2709C50.4487 11.237 50.4226 11.1966 50.4055 11.152C50.3885 11.1075 50.3809 11.0599 50.3834 11.0123V4.92891C50.3805 4.87538 50.3892 4.82185 50.4089 4.77198C50.4286 4.72211 50.4589 4.67707 50.4976 4.63995C50.5339 4.60494 50.5769 4.5775 50.624 4.55922C50.6711 4.54094 50.7213 4.5322 50.7718 4.53349C50.8322 4.52251 50.8942 4.52251 50.9546 4.53349C51.0124 4.55409 51.061 4.59452 51.0917 4.64756L55.2046 10.0694L55.0828 10.2291V4.9061C55.0826 4.85812 55.092 4.81059 55.1103 4.76623C55.1286 4.72186 55.1555 4.68154 55.1894 4.64756C55.2201 4.60859 55.2595 4.57731 55.3045 4.55619C55.3494 4.53508 55.3987 4.5247 55.4483 4.52589Z" fill="#6C6C6C"/>
</g>
</g>
<g id="Group 414">
<g id="Group 413">
<path id="Path 8229" d="M62.7989 4.52617C62.9066 4.52488 63.0105 4.56584 63.0883 4.64024C63.1253 4.67705 63.1545 4.72094 63.1741 4.76929C63.1938 4.81763 63.2034 4.86943 63.2025 4.92159V10.9442C63.2034 10.997 63.1929 11.0494 63.1719 11.0979C63.1509 11.1465 63.1198 11.1899 63.0807 11.2255C63.0029 11.2999 62.899 11.3409 62.7912 11.3396C62.7366 11.3417 62.6821 11.3326 62.631 11.313C62.5799 11.2934 62.5334 11.2636 62.4942 11.2255C62.4572 11.1887 62.428 11.1448 62.4083 11.0965C62.3887 11.0481 62.379 10.9963 62.3799 10.9442V4.92159C62.3791 4.86875 62.3896 4.81633 62.4106 4.76782C62.4316 4.71931 62.4627 4.67582 62.5018 4.64024C62.541 4.60212 62.5875 4.57235 62.6386 4.55274C62.6897 4.53314 62.7442 4.52409 62.7989 4.52617ZM62.7989 7.49184H67.3688V8.25226H62.7989V7.49184ZM67.3307 4.52617C67.3854 4.52409 67.4399 4.53314 67.4909 4.55274C67.542 4.57235 67.5886 4.60212 67.6277 4.64024C67.697 4.71757 67.735 4.81785 67.7344 4.92159V10.9442C67.7353 10.9963 67.7256 11.0481 67.706 11.0965C67.6863 11.1448 67.6571 11.1887 67.6201 11.2255C67.5795 11.2639 67.5317 11.2937 67.4793 11.3133C67.427 11.3329 67.3713 11.3418 67.3155 11.3396C67.2632 11.3406 67.2112 11.3311 67.1627 11.3116C67.1142 11.2921 67.0701 11.263 67.0331 11.2261C66.9961 11.1892 66.967 11.1452 66.9474 11.0967C66.9279 11.0483 66.9184 10.9964 66.9194 10.9442V4.92159C66.9186 4.86875 66.929 4.81633 66.95 4.76782C66.971 4.71931 67.0021 4.67582 67.0413 4.64024C67.1086 4.57335 67.1978 4.53286 67.2926 4.52617H67.3307Z" fill="#6C6C6C"/>
</g>
</g>
<g id="Group 416">
<g id="Group 415">
<path id="Path 8230" d="M74.6797 4.51082C74.7462 4.51517 74.8111 4.5333 74.8701 4.56405C74.9363 4.59222 74.9921 4.64 75.0301 4.70093L77.6197 8.59431H77.2693L79.8818 4.70853C79.9167 4.65251 79.9647 4.60588 80.0218 4.57274C80.0789 4.53959 80.1433 4.52094 80.2093 4.51843C80.3138 4.52814 80.4125 4.57075 80.4911 4.64009C80.5311 4.67503 80.5627 4.7184 80.5838 4.76707C80.6049 4.81573 80.6148 4.86847 80.613 4.92145V10.9516C80.6139 11.0038 80.6042 11.0556 80.5846 11.1039C80.565 11.1523 80.5358 11.1962 80.4987 11.233C80.4593 11.2708 80.4127 11.3003 80.3617 11.3199C80.3107 11.3395 80.2563 11.3487 80.2017 11.3471C80.147 11.3491 80.0925 11.3401 80.0414 11.3205C79.9904 11.3009 79.9438 11.2711 79.9047 11.233C79.8676 11.1962 79.8384 11.1523 79.8188 11.1039C79.7992 11.0556 79.7895 11.0038 79.7904 10.9516V5.66667H80.0342L77.7492 9.15703C77.7133 9.20947 77.6666 9.25357 77.6121 9.2863C77.5563 9.31684 77.4926 9.33008 77.4293 9.32432C77.3683 9.33102 77.3068 9.31768 77.2541 9.2863C77.1966 9.27299 77.1438 9.24404 77.1018 9.20265L74.8168 5.7199L75.0225 5.45375V10.9516C75.0248 11.0033 75.0165 11.0549 74.9982 11.1033C74.9799 11.1517 74.9518 11.1958 74.9158 11.233C74.8813 11.2709 74.8388 11.3008 74.7914 11.3205C74.744 11.3402 74.6929 11.3493 74.6416 11.3471C74.5916 11.3487 74.5417 11.3393 74.4957 11.3196C74.4496 11.2999 74.4085 11.2703 74.3751 11.233C74.3381 11.1962 74.3088 11.1523 74.2892 11.1039C74.2696 11.0556 74.2599 11.0038 74.2608 10.9516V4.91385C74.2635 4.80787 74.3072 4.70705 74.3827 4.63249C74.4212 4.593 74.4675 4.56183 74.5186 4.5409C74.5697 4.51997 74.6245 4.50974 74.6797 4.51082Z" fill="#6C6C6C"/>
</g>
</g>
<g id="Group 418">
<g id="Group 417">
<path id="Path 8231" d="M89.5701 5.53731L87.2851 11.1112C87.2631 11.1846 87.2176 11.2487 87.1556 11.2937C87.0979 11.3419 87.0252 11.3688 86.95 11.3698C86.8998 11.3744 86.8492 11.368 86.8018 11.3509C86.7544 11.3338 86.7114 11.3065 86.6758 11.2709C86.5973 11.2107 86.5433 11.1244 86.5234 11.0276V10.8831L89.0445 4.75407C89.076 4.6732 89.1319 4.60411 89.2045 4.55636C89.2736 4.50912 89.3572 4.48759 89.4406 4.49553C89.5219 4.49484 89.6016 4.51869 89.6691 4.56397C89.7372 4.60771 89.7862 4.67565 89.8062 4.75407L92.3272 10.8375C92.3346 10.8905 92.3346 10.9442 92.3272 10.9972C92.3295 11.0495 92.3205 11.1017 92.3008 11.1503C92.2811 11.1988 92.2512 11.2426 92.213 11.2785C92.1429 11.3449 92.0506 11.3829 91.954 11.385C91.8712 11.3881 91.79 11.3611 91.7255 11.309C91.6593 11.2583 91.609 11.1897 91.5808 11.1112L89.2578 5.54492L89.5701 5.53731ZM87.7649 9.52195L88.0925 8.76152H90.9867L91.139 9.52195H87.7649ZM89.4939 3.87958C89.1805 3.88869 88.872 3.80106 88.6104 3.62864C88.3648 3.45749 88.1807 3.21232 88.0848 2.92905C88.0633 2.88526 88.0521 2.83714 88.0521 2.78837C88.0521 2.7396 88.0633 2.69148 88.0848 2.64769C88.1074 2.61466 88.1383 2.58814 88.1744 2.57079C88.2105 2.55344 88.2505 2.54587 88.2905 2.54884C88.3727 2.54056 88.4549 2.56517 88.519 2.61727C88.5815 2.67235 88.6354 2.73642 88.6789 2.80738C88.7594 2.94778 88.8715 3.06755 89.0064 3.15718C89.1512 3.24336 89.3179 3.28564 89.4863 3.27884C89.6451 3.28124 89.8013 3.2381 89.9363 3.15453C90.0713 3.07096 90.1795 2.95048 90.2479 2.80738C90.2866 2.73305 90.3412 2.66815 90.4079 2.61727C90.4759 2.57378 90.5557 2.55251 90.6364 2.55644C90.6767 2.55276 90.7173 2.55917 90.7546 2.5751C90.7918 2.59104 90.8245 2.61598 90.8496 2.64769C90.8711 2.69015 90.8822 2.73703 90.8822 2.78457C90.8822 2.83211 90.8711 2.87899 90.8496 2.92144C90.7619 3.20878 90.5793 3.45803 90.3317 3.62864C90.083 3.79226 89.7917 3.87951 89.4939 3.87958ZM89.4939 2.24466C89.4579 2.24815 89.4216 2.24384 89.3874 2.23203C89.3532 2.22022 89.322 2.20119 89.2959 2.17623C89.2719 2.15579 89.2532 2.12995 89.2413 2.10086C89.2294 2.07176 89.2246 2.04025 89.2273 2.00893C89.2201 1.97381 89.2201 1.9376 89.2273 1.90247L89.3187 1.81122L90.1794 1.10402C90.226 1.06512 90.2772 1.03193 90.3317 1.00517C90.393 0.973961 90.461 0.958291 90.5297 0.959542C90.624 0.96206 90.7138 1.0001 90.7811 1.066C90.8187 1.09746 90.8486 1.13714 90.8684 1.18197C90.8882 1.22681 90.8974 1.27559 90.8953 1.32455C90.8976 1.40011 90.8763 1.47451 90.8344 1.53747C90.7868 1.60528 90.7207 1.65806 90.644 1.68955L89.6919 2.17623L89.5777 2.22946L89.4939 2.24466Z" fill="#6C6C6C"/>
</g>
</g>
<g id="Group 420">
<g id="Group 419">
<path id="Path 8232" d="M97.7282 5.2713C97.6214 5.27546 97.5174 5.23718 97.4388 5.16484C97.4008 5.13035 97.3709 5.08795 97.3512 5.04065C97.3314 4.99334 97.3223 4.94228 97.3245 4.89109C97.3229 4.84108 97.3323 4.79133 97.3521 4.74535C97.3718 4.69937 97.4014 4.65826 97.4388 4.62493C97.5201 4.55802 97.6229 4.52288 97.7282 4.52608H102.298C102.383 4.53777 102.461 4.57803 102.519 4.64014C102.559 4.67318 102.591 4.71512 102.612 4.76264C102.634 4.81016 102.643 4.86195 102.641 4.9139C102.643 4.96466 102.633 5.01514 102.611 5.06134C102.59 5.10754 102.559 5.14818 102.519 5.18005C102.442 5.24846 102.34 5.28393 102.237 5.2789L97.7282 5.2713ZM100.013 11.3547C99.9584 11.3582 99.9034 11.3498 99.8522 11.3301C99.8009 11.3105 99.7545 11.2799 99.7162 11.2406C99.6791 11.2038 99.6499 11.1599 99.6303 11.1116C99.6107 11.0633 99.601 11.0114 99.6019 10.9593V4.95192H100.432V10.9593C100.433 11.0121 100.423 11.0646 100.402 11.1131C100.38 11.1616 100.349 11.2051 100.31 11.2406C100.267 11.279 100.216 11.3077 100.161 11.3248C100.106 11.3418 100.048 11.3468 99.9903 11.3395L100.013 11.3547Z" fill="#6C6C6C"/>
</g>
</g>
</g>
</g>
</g>
</g>
</svg>
