<svg width="60" height="61" viewBox="0 0 60 61" fill="none" xmlns="http://www.w3.org/2000/svg">
<g id="healthicons:money-bag">
<path id="Vector" fill-rule="evenodd" clip-rule="evenodd" d="M30.0487 8.41016C24.4024 8.41016 19.2587 10.2752 16.2149 11.7989C15.9399 11.9364 15.6833 12.0706 15.4449 12.2014C14.9724 12.4589 14.5699 12.6989 14.2499 12.9102L17.7124 18.0077L19.3424 18.6564C25.7124 21.8702 34.2549 21.8702 40.6262 18.6564L42.4762 17.6964L45.7499 12.9102C45.071 12.469 44.366 12.0696 43.6387 11.7139C40.6099 10.2064 35.5887 8.41016 30.0499 8.41016M21.9974 14.1802C20.7716 13.9495 19.5607 13.6456 18.3712 13.2702C21.2224 12.0039 25.4712 10.6602 30.0499 10.6602C33.2212 10.6602 36.2199 11.3052 38.6999 12.1227C35.7937 12.5314 32.6924 13.2252 29.7374 14.0789C27.4124 14.7514 24.6949 14.6789 21.9974 14.1802ZM41.9474 20.5102L41.6399 20.6652C34.6324 24.2002 25.3374 24.2002 18.3299 20.6652L18.0387 20.5177C7.50992 32.0689 -0.527584 53.4064 30.0487 53.4064C60.6249 53.4064 52.3924 31.6727 41.9474 20.5102ZM28.7499 30.9102C28.0869 30.9102 27.451 31.1735 26.9822 31.6424C26.5133 32.1112 26.2499 32.7471 26.2499 33.4102C26.2499 34.0732 26.5133 34.7091 26.9822 35.1779C27.451 35.6468 28.0869 35.9102 28.7499 35.9102V30.9102ZM31.2499 28.4102V27.1602H28.7499V28.4102C27.4238 28.4102 26.1521 28.9369 25.2144 29.8746C24.2767 30.8123 23.7499 32.0841 23.7499 33.4102C23.7499 34.7362 24.2767 36.008 25.2144 36.9457C26.1521 37.8834 27.4238 38.4102 28.7499 38.4102V43.4102C27.6624 43.4102 26.7362 42.7164 26.3912 41.7439C26.34 41.5848 26.2574 41.4376 26.1483 41.3109C26.0393 41.1843 25.9059 41.0808 25.7561 41.0066C25.6064 40.9324 25.4432 40.889 25.2764 40.879C25.1096 40.8689 24.9424 40.8924 24.7848 40.9481C24.6272 41.0038 24.4824 41.0905 24.3589 41.2031C24.2354 41.3158 24.1358 41.452 24.0659 41.6038C23.9959 41.7556 23.9572 41.9199 23.9519 42.087C23.9465 42.254 23.9748 42.4205 24.0349 42.5764C24.3796 43.5515 25.0181 44.3957 25.8625 44.9927C26.7069 45.5898 27.7157 45.9103 28.7499 45.9102V47.1602H31.2499V45.9102C32.576 45.9102 33.8478 45.3834 34.7854 44.4457C35.7231 43.508 36.2499 42.2362 36.2499 40.9102C36.2499 39.5841 35.7231 38.3123 34.7854 37.3746C33.8478 36.4369 32.576 35.9102 31.2499 35.9102V30.9102C32.3374 30.9102 33.2637 31.6039 33.6087 32.5764C33.6599 32.7355 33.7424 32.8827 33.8515 33.0094C33.9606 33.136 34.0939 33.2395 34.2437 33.3137C34.3935 33.3879 34.5566 33.4313 34.7234 33.4413C34.8903 33.4514 35.0574 33.4279 35.215 33.3722C35.3726 33.3165 35.5174 33.2298 35.6409 33.1172C35.7644 33.0045 35.8641 32.8683 35.934 32.7165C36.0039 32.5647 36.0427 32.4004 36.048 32.2333C36.0533 32.0663 36.025 31.8999 35.9649 31.7439C35.6203 30.7688 34.9818 29.9246 34.1373 29.3276C33.2929 28.7305 32.2841 28.41 31.2499 28.4102ZM31.2499 38.4102V43.4102C31.913 43.4102 32.5488 43.1468 33.0177 42.6779C33.4865 42.2091 33.7499 41.5732 33.7499 40.9102C33.7499 40.2471 33.4865 39.6112 33.0177 39.1424C32.5488 38.6735 31.913 38.4102 31.2499 38.4102Z" fill="#1B87EC"/>
</g>
</svg>
