<svg width="32" height="33" viewBox="0 0 32 33" fill="none" xmlns="http://www.w3.org/2000/svg">
<g id="Icon">
<path id="Vector" fill-rule="evenodd" clip-rule="evenodd" d="M18.3684 4.95947C18.7034 4.95947 19.0247 5.09255 19.2616 5.32944C19.4985 5.56633 19.6316 5.88762 19.6316 6.22263C19.6323 7.38716 20.0348 8.51578 20.7713 9.4179C21.5077 10.32 22.5329 10.9404 23.6737 11.1742C24.002 11.2412 24.2902 11.4359 24.475 11.7154C24.6598 11.9949 24.726 12.3364 24.6589 12.6647C24.5919 12.993 24.3973 13.2813 24.1177 13.4661C23.8382 13.6508 23.4967 13.717 23.1684 13.65C21.8522 13.381 20.6314 12.7662 19.6316 11.8689V22.6437C19.6316 23.8928 19.2612 25.1139 18.5672 26.1525C17.8732 27.1912 16.8868 28.0007 15.7327 28.4787C14.5787 28.9567 13.3088 29.0818 12.0836 28.8381C10.8585 28.5944 9.73313 27.9929 8.84985 27.1096C7.96658 26.2263 7.36506 25.101 7.12136 23.8758C6.87766 22.6507 7.00274 21.3808 7.48076 20.2267C7.95879 19.0727 8.7683 18.0863 9.80693 17.3923C10.8456 16.6983 12.0666 16.3279 13.3158 16.3279C13.6508 16.3279 13.9721 16.461 14.209 16.6979C14.4459 16.9348 14.5789 17.256 14.5789 17.5911C14.5789 17.9261 14.4459 18.2473 14.209 18.4842C13.9721 18.7211 13.6508 18.8542 13.3158 18.8542C12.5663 18.8542 11.8336 19.0765 11.2105 19.4928C10.5873 19.9092 10.1016 20.5011 9.81478 21.1935C9.52796 21.8859 9.45291 22.6479 9.59913 23.383C9.74535 24.1181 10.1063 24.7933 10.6362 25.3232C11.1662 25.8532 11.8414 26.2141 12.5765 26.3603C13.3116 26.5066 14.0735 26.4315 14.766 26.1447C15.4584 25.8579 16.0502 25.3722 16.4666 24.749C16.883 24.1258 17.1053 23.3932 17.1053 22.6437V6.22263C17.1053 5.88762 17.2383 5.56633 17.4752 5.32944C17.7121 5.09255 18.0334 4.95947 18.3684 4.95947Z" fill="#2F80ED"/>
</g>
</svg>
