<svg width="32" height="33" viewBox="0 0 32 33" fill="none" xmlns="http://www.w3.org/2000/svg">
<g id="Icon">
<path id="Vector" d="M16.6125 15.062V14.4995H18.2962V22.402H17.3337C17.1432 22.4023 16.9603 22.3271 16.8251 22.1929C16.69 22.0586 16.6135 21.8762 16.6125 21.6857C15.9098 22.2004 15.061 22.4785 14.19 22.477C13.1017 22.477 12.058 22.0448 11.2882 21.2755C10.5184 20.5062 10.0857 19.4628 10.085 18.3745C10.0857 17.2862 10.5184 16.2427 11.2882 15.4734C12.058 14.7041 13.1017 14.272 14.19 14.272C15.0606 14.2707 15.9101 14.5475 16.6125 15.062ZM9.64875 11.9595V12.2157C9.64875 12.6932 9.585 13.0832 9.27375 13.5407L9.23625 13.5832C9.13266 13.6996 9.03179 13.8184 8.93375 13.9395L3.53 20.722H9.64875V21.682C9.64875 21.7766 9.63008 21.8704 9.59382 21.9578C9.55756 22.0452 9.50442 22.1247 9.43742 22.1915C9.37043 22.2584 9.29091 22.3114 9.20342 22.3475C9.11592 22.3836 9.02216 22.4021 8.9275 22.402H1V21.9495C1 21.3957 1.1375 21.1482 1.3125 20.8907L7.0725 13.7595H1.24V11.9595H9.64875ZM20.3375 22.402C20.1784 22.402 20.0258 22.3388 19.9132 22.2262C19.8007 22.1137 19.7375 21.9611 19.7375 21.802V11.9595H21.5387V22.402H20.3375ZM26.8663 14.222C27.4089 14.2218 27.9463 14.3285 28.4478 14.5361C28.9492 14.7436 29.4049 15.0478 29.7887 15.4315C30.1726 15.8151 30.4771 16.2706 30.685 16.7719C30.8928 17.2732 30.9998 17.8105 31 18.3532C31.0002 18.8959 30.8934 19.4333 30.6859 19.9348C30.4784 20.4362 30.1741 20.8919 29.7905 21.2757C29.4069 21.6596 28.9514 21.9641 28.4501 22.1719C27.9488 22.3798 27.4114 22.4868 26.8687 22.487C25.7727 22.4873 24.7215 22.0522 23.9463 21.2775C23.171 20.5027 22.7353 19.4517 22.735 18.3557C22.7347 17.2597 23.1697 16.2085 23.9445 15.4332C24.7193 14.658 25.7702 14.2223 26.8663 14.222ZM14.1913 20.7882C14.5129 20.7955 14.8328 20.7385 15.1322 20.6205C15.4315 20.5024 15.7042 20.3257 15.9343 20.1008C16.1644 19.8759 16.3472 19.6073 16.4721 19.3107C16.5969 19.0141 16.6612 18.6956 16.6612 18.3738C16.6612 18.0521 16.5969 17.7336 16.4721 17.437C16.3472 17.1404 16.1644 16.8718 15.9343 16.6469C15.7042 16.4219 15.4315 16.2453 15.1322 16.1272C14.8328 16.0092 14.5129 15.9522 14.1913 15.9595C13.5604 15.9738 12.9603 16.2345 12.5192 16.6857C12.0781 17.1369 11.8312 17.7429 11.8312 18.3738C11.8312 19.0048 12.0781 19.6108 12.5192 20.062C12.9603 20.5132 13.5604 20.7739 14.1913 20.7882ZM26.8663 20.7845C27.5111 20.7845 28.1295 20.5283 28.5854 20.0724C29.0414 19.6164 29.2975 18.998 29.2975 18.3532C29.2975 17.7084 29.0414 17.09 28.5854 16.6341C28.1295 16.1781 27.5111 15.922 26.8663 15.922C26.2214 15.922 25.603 16.1781 25.1471 16.6341C24.6911 17.09 24.435 17.7084 24.435 18.3532C24.435 18.998 24.6911 19.6164 25.1471 20.0724C25.603 20.5283 26.2214 20.7845 26.8663 20.7845Z" fill="#2F80ED"/>
</g>
</svg>
