<svg width="33" height="33" viewBox="0 0 33 33" fill="none" xmlns="http://www.w3.org/2000/svg">
<g id="Icon">
<path id="Vector" d="M11.8074 4.10249L10.6328 4.46709C9.58704 4.79208 8.65309 5.41814 7.94092 6.27161C7.22875 7.12507 6.76801 8.17041 6.61292 9.28458C6.1264 12.7753 7.2141 16.8569 9.83672 21.5376C12.4528 26.2066 15.3326 29.2145 18.5023 30.5312C19.5208 30.9541 20.6357 31.0668 21.7145 30.8559C22.7933 30.6449 23.7907 30.1192 24.5879 29.3411L25.4758 28.4735C26.0523 27.9113 26.4111 27.1525 26.4856 26.3381C26.56 25.5237 26.3449 24.7092 25.8804 24.046L23.6591 20.8726C23.3588 20.4441 22.9359 20.1233 22.4498 19.955C21.9636 19.7867 21.4385 19.7794 20.9481 19.934L17.5883 20.9924L17.5015 21.0093C17.1312 21.065 16.2761 20.2396 15.2114 18.3389C14.0975 16.3505 13.8681 15.1874 14.1744 14.887L15.883 13.2446C16.5072 12.644 16.9335 11.8574 17.1024 10.9948C17.2713 10.1322 17.1743 9.2368 16.8249 8.43384L15.7405 5.95082C15.4144 5.20363 14.8357 4.60412 14.1124 4.26405C13.3891 3.92398 12.5688 3.86656 11.8074 4.10249ZM14.2498 6.6429L15.331 9.12591C15.5408 9.60752 15.5993 10.1447 15.4982 10.6622C15.3972 11.1798 15.1417 11.6518 14.7674 12.0124L13.054 13.6564C11.9564 14.7266 12.3201 16.553 13.7944 19.1829C15.1803 21.6575 16.4449 22.8796 17.8045 22.6669L18.0076 22.623L21.428 21.5477C21.5915 21.496 21.7666 21.4983 21.9288 21.5543C22.091 21.6103 22.232 21.7172 22.3323 21.86L24.5535 25.0334C24.7861 25.365 24.8939 25.7724 24.8569 26.1798C24.8198 26.5871 24.6404 26.9668 24.3521 27.2481L23.4626 28.1157C22.8931 28.6711 22.1808 29.0463 21.4104 29.1968C20.64 29.3473 19.8439 29.2668 19.1166 28.9647C16.3351 27.8101 13.7059 25.0638 11.257 20.6936C8.80144 16.3133 7.8071 12.588 8.23465 9.52428C8.34532 8.72828 8.6744 7.98143 9.18315 7.37167C9.69189 6.76192 10.3591 6.31463 11.1063 6.08249L12.2808 5.71788C12.6616 5.59998 13.071 5.62881 13.4327 5.79901C13.7944 5.9692 14.0836 6.26914 14.2465 6.6429" fill="#3F3F3F"/>
</g>
</svg>
