<svg width="32" height="33" viewBox="0 0 32 33" fill="none" xmlns="http://www.w3.org/2000/svg">
<g id="Icon">
<path id="Vector" d="M28 16.5872C28 16.5282 28 16.4613 27.9973 16.3836C27.9946 16.1666 27.9893 15.9229 27.9839 15.663C27.9625 14.9157 27.925 14.1711 27.8661 13.4693C27.7857 12.5023 27.6679 11.6961 27.5071 11.0907C27.3375 10.459 27.0051 9.88282 26.543 9.41982C26.081 8.95682 25.5055 8.62321 24.8741 8.45233C24.1161 8.24876 22.6321 8.12287 20.5429 8.04519C19.5491 8.00769 18.4857 7.98358 17.4223 7.97019C17.05 7.96483 16.7045 7.96215 16.3938 7.95947H15.6062C15.2955 7.96215 14.95 7.96483 14.5777 7.97019C13.5143 7.98358 12.4509 8.00769 11.4571 8.04519C9.36786 8.12554 7.88125 8.25144 7.12589 8.45233C6.49429 8.62279 5.91858 8.95626 5.45646 9.41933C4.99434 9.88239 4.66204 10.4588 4.49286 11.0907C4.32946 11.6961 4.21429 12.5023 4.13393 13.4693C4.075 14.1711 4.0375 14.9157 4.01607 15.663C4.00804 15.9229 4.00536 16.1666 4.00268 16.3836C4.00268 16.4613 4 16.5282 4 16.5872V16.7372C4 16.7961 4 16.863 4.00268 16.9407C4.00536 17.1577 4.01071 17.4014 4.01607 17.6613C4.0375 18.4086 4.075 19.1532 4.13393 19.855C4.21429 20.822 4.33214 21.6282 4.49286 22.2336C4.83571 23.5166 5.84286 24.5291 7.12589 24.872C7.88125 25.0755 9.36786 25.2014 11.4571 25.2791C12.4509 25.3166 13.5143 25.3407 14.5777 25.3541C14.95 25.3595 15.2955 25.3622 15.6062 25.3648H16.3938C16.7045 25.3622 17.05 25.3595 17.4223 25.3541C18.4857 25.3407 19.5491 25.3166 20.5429 25.2791C22.6321 25.1988 24.1187 25.0729 24.8741 24.872C26.1571 24.5291 27.1643 23.5193 27.5071 22.2336C27.6705 21.6282 27.7857 20.822 27.8661 19.855C27.925 19.1532 27.9625 18.4086 27.9839 17.6613C27.992 17.4014 27.9946 17.1577 27.9973 16.9407C27.9973 16.863 28 16.7961 28 16.7372V16.5872ZM26.0714 16.7264C26.0714 16.7827 26.0714 16.8443 26.0688 16.9166C26.0661 17.1255 26.0607 17.3559 26.0554 17.605C26.0366 18.3175 25.9991 19.03 25.9429 19.6916C25.8705 20.5541 25.7688 21.2613 25.6429 21.7354C25.4768 22.3541 24.9893 22.8443 24.3732 23.0077C23.8107 23.1577 22.3937 23.2782 20.4679 23.3505C19.4929 23.388 18.4429 23.4122 17.3955 23.4255C17.0286 23.4309 16.6884 23.4336 16.383 23.4336H15.617L14.6045 23.4255C13.5571 23.4122 12.5098 23.388 11.5321 23.3505C9.60625 23.2755 8.18661 23.1577 7.62679 23.0077C7.01071 22.8416 6.52321 22.3541 6.35714 21.7354C6.23125 21.2613 6.12946 20.5541 6.05714 19.6916C6.00089 19.03 5.96607 18.3175 5.94464 17.605C5.93661 17.3559 5.93393 17.1229 5.93125 16.9166C5.93125 16.8443 5.92857 16.78 5.92857 16.7264V16.5979C5.92857 16.5416 5.92857 16.48 5.93125 16.4077C5.93393 16.1988 5.93929 15.9684 5.94464 15.7193C5.96339 15.0068 6.00089 14.2943 6.05714 13.6327C6.12946 12.7702 6.23125 12.063 6.35714 11.5889C6.52321 10.9702 7.01071 10.48 7.62679 10.3166C8.18929 10.1666 9.60625 10.0461 11.5321 9.97376C12.5071 9.93626 13.5571 9.91215 14.6045 9.89876C14.9714 9.8934 15.3116 9.89072 15.617 9.89072H16.383L17.3955 9.89876C18.4429 9.91215 19.4902 9.93626 20.4679 9.97376C22.3937 10.0488 23.8134 10.1666 24.3732 10.3166C24.9893 10.4827 25.4768 10.9702 25.6429 11.5889C25.7688 12.063 25.8705 12.7702 25.9429 13.6327C25.9991 14.2943 26.0339 15.0068 26.0554 15.7193C26.0634 15.9684 26.0661 16.2014 26.0688 16.4077C26.0688 16.48 26.0714 16.5443 26.0714 16.5979V16.7264ZM13.6161 20.2514L19.8304 16.6354L13.6161 13.0729V20.2514Z" fill="#2F80ED"/>
</g>
</svg>
