<svg width="48" height="49" viewBox="0 0 48 49" fill="none" xmlns="http://www.w3.org/2000/svg">
<g id="octicon:play-24">
<path id="Vector" d="M19 32.0782V17.7422C19.0003 17.5628 19.0488 17.3868 19.1405 17.2327C19.2322 17.0785 19.3637 16.9518 19.5211 16.8659C19.6786 16.78 19.8563 16.7381 20.0355 16.7445C20.2148 16.7508 20.389 16.8053 20.54 16.9022L31.692 24.0682C31.8332 24.1586 31.9494 24.2832 32.0299 24.4303C32.1103 24.5775 32.1525 24.7425 32.1525 24.9102C32.1525 25.0779 32.1103 25.2429 32.0299 25.39C31.9494 25.5372 31.8332 25.6617 31.692 25.7522L20.54 32.9202C20.389 33.017 20.2148 33.0715 20.0355 33.0779C19.8563 33.0843 19.6786 33.0423 19.5211 32.9564C19.3637 32.8705 19.2322 32.7438 19.1405 32.5897C19.0488 32.4355 19.0003 32.2595 19 32.0802V32.0782Z" fill="#F9F9F9"/>
<path id="Vector_2" d="M2 24.9102C2 12.7602 11.85 2.91016 24 2.91016C36.15 2.91016 46 12.7602 46 24.9102C46 37.0602 36.15 46.9102 24 46.9102C11.85 46.9102 2 37.0602 2 24.9102ZM24 5.91016C18.9609 5.91016 14.1282 7.91194 10.565 11.4751C7.00178 15.0383 5 19.871 5 24.9102C5 29.9493 7.00178 34.782 10.565 38.3452C14.1282 41.9084 18.9609 43.9102 24 43.9102C29.0391 43.9102 33.8718 41.9084 37.435 38.3452C40.9982 34.782 43 29.9493 43 24.9102C43 19.871 40.9982 15.0383 37.435 11.4751C33.8718 7.91194 29.0391 5.91016 24 5.91016Z" fill="#F9F9F9"/>
</g>
</svg>
