<svg width="36" height="36" viewBox="0 0 36 36" fill="none" xmlns="http://www.w3.org/2000/svg">
<g id="simple-icons:zalo">
<path id="Vector" d="M18.735 15.4081V14.7331H20.7555V24.2161H19.6005C19.3719 24.2165 19.1524 24.1262 18.9902 23.9651C18.8279 23.804 18.7362 23.5852 18.735 23.3566C17.8918 23.9742 16.8733 24.3079 15.828 24.3061C14.5221 24.3061 13.2696 23.7875 12.3459 22.8643C11.4221 21.9412 10.9028 20.689 10.902 19.3831C10.9028 18.0771 11.4221 16.8249 12.3459 15.9018C13.2696 14.9786 14.5221 14.4601 15.828 14.4601C16.8727 14.4586 17.8922 14.7907 18.735 15.4081ZM10.3785 11.6851V11.9926C10.3785 12.5656 10.302 13.0336 9.9285 13.5826L9.8835 13.6336C9.75919 13.7732 9.63815 13.9157 9.5205 14.0611L3.036 22.2001H10.3785V23.3521C10.3785 23.4656 10.3561 23.5781 10.3126 23.683C10.2691 23.788 10.2053 23.8833 10.1249 23.9635C10.0445 24.0438 9.9491 24.1074 9.8441 24.1507C9.7391 24.1941 9.62659 24.2163 9.513 24.2161H0V23.6731C0 23.0086 0.165 22.7116 0.375 22.4026L7.287 13.8451H0.288V11.6851H10.3785ZM23.205 24.2161C23.014 24.2161 22.8309 24.1402 22.6959 24.0052C22.5609 23.8701 22.485 23.687 22.485 23.4961V11.6851H24.6465V24.2161H23.205ZM31.0395 14.4001C31.6907 14.3999 32.3356 14.5279 32.9373 14.777C33.5391 15.026 34.0859 15.3911 34.5465 15.8515C35.0071 16.3118 35.3726 16.8584 35.6219 17.4599C35.8713 18.0615 35.9998 18.7063 36 19.3576C36.0002 20.0088 35.8721 20.6537 35.6231 21.2554C35.3741 21.8571 35.0089 22.4039 34.5486 22.8645C34.0883 23.3252 33.5417 23.6906 32.9401 23.94C32.3385 24.1894 31.6937 24.3179 31.0425 24.3181C29.7273 24.3185 28.4658 23.7964 27.5355 22.8667C26.6052 21.9369 26.0824 20.6758 26.082 19.3606C26.0816 18.0453 26.6037 16.7839 27.5334 15.8536C28.4631 14.9233 29.7243 14.4005 31.0395 14.4001ZM15.8295 22.2796C16.2155 22.2883 16.5994 22.2199 16.9586 22.0782C17.3178 21.9366 17.6451 21.7246 17.9212 21.4547C18.1973 21.1848 18.4167 20.8624 18.5665 20.5065C18.7163 20.1507 18.7934 19.7684 18.7934 19.3823C18.7934 18.9962 18.7163 18.614 18.5665 18.2581C18.4167 17.9022 18.1973 17.5798 17.9212 17.3099C17.6451 17.04 17.3178 16.828 16.9586 16.6864C16.5994 16.5447 16.2155 16.4763 15.8295 16.4851C15.0725 16.5023 14.3523 16.8151 13.8231 17.3566C13.2938 17.898 12.9974 18.6251 12.9974 19.3823C12.9974 20.1395 13.2938 20.8666 13.8231 21.4081C14.3523 21.9495 15.0725 22.2623 15.8295 22.2796ZM31.0395 22.2751C31.8133 22.2751 32.5553 21.9677 33.1025 21.4205C33.6496 20.8734 33.957 20.1313 33.957 19.3576C33.957 18.5838 33.6496 17.8417 33.1025 17.2946C32.5553 16.7474 31.8133 16.4401 31.0395 16.4401C30.2657 16.4401 29.5237 16.7474 28.9765 17.2946C28.4294 17.8417 28.122 18.5838 28.122 19.3576C28.122 20.1313 28.4294 20.8734 28.9765 21.4205C29.5237 21.9677 30.2657 22.2751 31.0395 22.2751Z" fill="#F9F9F9"/>
</g>
</svg>
