<svg width="60" height="61" viewBox="0 0 60 61" fill="none" xmlns="http://www.w3.org/2000/svg">
<g id="solar:medal-ribbons-star-bold">
<path id="Vector" fill-rule="evenodd" clip-rule="evenodd" d="M30 40.9102C34.6413 40.9102 39.0925 39.0664 42.3744 35.7845C45.6563 32.5026 47.5 28.0514 47.5 23.4102C47.5 18.7689 45.6563 14.3177 42.3744 11.0358C39.0925 7.7539 34.6413 5.91016 30 5.91016C25.3587 5.91016 20.9075 7.7539 17.6256 11.0358C14.3437 14.3177 12.5 18.7689 12.5 23.4102C12.5 28.0514 14.3437 32.5026 17.6256 35.7845C20.9075 39.0664 25.3587 40.9102 30 40.9102ZM30 15.9102C29.29 15.9102 28.815 16.7602 27.865 18.4677L27.62 18.9077C27.35 19.3927 27.215 19.6327 27.005 19.7927C26.7925 19.9527 26.53 20.0127 26.005 20.1302L25.53 20.2402C23.685 20.6577 22.7625 20.8652 22.5425 21.5702C22.3225 22.2777 22.9525 23.0127 24.21 24.4827L24.535 24.8627C24.8925 25.2802 25.0725 25.4877 25.1525 25.7477C25.2325 26.0077 25.205 26.2852 25.1525 26.8427L25.1025 27.3502C24.9125 29.3127 24.8175 30.2952 25.39 30.7302C25.965 31.1652 26.83 30.7677 28.5575 29.9727L29.0025 29.7677C29.495 29.5427 29.74 29.4302 30 29.4302C30.26 29.4302 30.505 29.5427 30.9975 29.7677L31.4425 29.9727C33.17 30.7702 34.035 31.1652 34.61 30.7302C35.185 30.2952 35.0875 29.3127 34.8975 27.3502L34.8475 26.8427C34.795 26.2852 34.7675 26.0077 34.8475 25.7477C34.9275 25.4902 35.1075 25.2802 35.465 24.8627L35.79 24.4827C37.0475 23.0127 37.6775 22.2777 37.4575 21.5702C37.2375 20.8652 36.315 20.6577 34.47 20.2402L33.995 20.1302C33.47 20.0127 33.2075 19.9552 32.995 19.7927C32.785 19.6327 32.65 19.3927 32.38 18.9077L32.135 18.4677C31.185 16.7602 30.71 15.9102 30 15.9102Z" fill="#1B87EC"/>
<path id="Vector_2" d="M11.2376 33.3976L7.48009 37.2851C6.13009 38.6851 5.45509 39.3826 5.22009 39.9751C4.68759 41.3251 5.14509 42.8201 6.30259 43.5301C6.81259 43.8401 7.72759 43.9376 9.56509 44.1301C10.6001 44.2401 11.1201 44.2951 11.5526 44.4626C12.5251 44.8351 13.2776 45.6176 13.6401 46.6226C13.8001 47.0726 13.8526 47.6076 13.9576 48.6801C14.1451 50.5801 14.2401 51.5301 14.5401 52.0576C15.2251 53.2576 16.6726 53.7301 17.9751 53.1776C18.5451 52.9376 19.2201 52.2376 20.5726 50.8401L26.7776 44.4151C23.5089 43.9128 20.4024 42.6552 17.7048 40.7422C15.0072 38.8293 12.7929 36.3161 11.2376 33.3976ZM33.2251 44.4176L39.4301 50.8426C40.7801 52.2426 41.4551 52.9401 42.0251 53.1826C43.3276 53.7326 44.7751 53.2601 45.4601 52.0601C45.7601 51.5351 45.8526 50.5851 46.0401 48.6851C46.1476 47.6101 46.2001 47.0751 46.3601 46.6251C46.7201 45.6201 47.4751 44.8376 48.4476 44.4651C48.8801 44.2976 49.3976 44.2451 50.4351 44.1351C52.2701 43.9401 53.1876 43.8426 53.6976 43.5326C54.8551 42.8226 55.3126 41.3251 54.7801 39.9776C54.5451 39.3851 53.8701 38.6851 52.5201 37.2876L48.7626 33.3976C47.2073 36.3161 44.9929 38.8318 42.2953 40.7447C39.5977 42.6577 36.4912 43.9153 33.2226 44.4176" fill="#1B87EC"/>
</g>
</svg>
