<svg width="100" height="49" viewBox="0 0 100 49" fill="none" xmlns="http://www.w3.org/2000/svg">
<path id="Vector" d="M0.674316 21.3753C4.99031 16.1036 9.33713 10.8319 13.6223 5.56023C16.4585 2.10743 20.0038 0.504351 24.4739 0.997607C24.9364 1.05926 25.5221 1.02844 25.7996 1.30589C26.2928 1.82998 27.0019 2.60069 26.9094 3.1556C26.8169 3.71052 25.892 4.2346 25.2446 4.51206C24.7822 4.69703 24.1348 4.4504 23.5799 4.38874C21.1753 4.14212 18.9865 4.78951 17.445 6.57757C13.6531 10.9244 10.0462 15.3637 6.13096 20.0805C7.82653 19.9571 9.0905 19.8338 10.3853 19.7413C22.1001 18.724 33.2909 20.6662 43.7418 26.1537C48.0269 28.4042 51.973 28.5275 56.2581 26.092C66.9865 19.988 78.6088 18.7857 90.6628 20.0188C91.6184 20.1113 92.605 20.1729 93.9306 20.2963C93.1599 19.3406 92.5433 18.5699 91.9267 17.83C89.2446 14.5313 86.5009 11.2635 83.8497 7.93402C81.63 5.15946 78.8863 3.89549 75.341 4.51206C74.1695 4.69703 73.2138 4.51206 72.998 3.18643C72.7822 1.76832 73.7687 1.27506 74.9094 1.12092C79.2562 0.473523 82.9865 1.61418 85.8227 5.03614C90.262 10.3695 94.6088 15.7645 98.9865 21.1286C99.0789 21.2519 99.2023 21.3136 99.3256 21.4369C99.3256 21.8377 99.3256 22.2693 99.3256 22.6701C96.5202 25.7221 93.6223 28.6816 91.9576 32.566C90.9094 35.0015 90.0154 37.5294 88.8439 39.9032C86.8092 44.0342 84.1271 47.7645 79.2254 48.4119C75.2485 48.936 71.1483 48.8435 67.1098 48.7202C61.9306 48.5352 58.2928 45.8223 56.1656 41.0439C55.4566 39.4408 54.7167 37.8685 53.8227 36.3887C51.4489 32.381 48.4277 32.381 46.0231 36.3887C44.8824 38.2693 43.8034 40.2115 42.8786 42.1845C41.4913 45.1749 39.2408 47.0862 36.0963 47.9803C31.1945 49.3984 26.2928 49.0284 21.2986 48.4119C16.2119 47.7953 12.9749 45.144 11.1868 40.4273C10.1078 37.5911 9.12133 34.6932 7.54908 32.1344C5.57605 28.7741 3.01728 25.7529 0.674316 22.6084C0.674316 22.2076 0.674316 21.776 0.674316 21.3753ZM72.5356 46.778C72.5664 46.6238 72.5972 46.4697 72.6281 46.3464C73.3988 46.3464 74.1695 46.408 74.9402 46.3464C79.1329 45.8839 83.0789 44.7433 85.4219 40.8589C87.6724 37.1286 88.8439 32.9668 89.2138 28.6508C89.4913 25.3213 88.0732 23.5641 84.8053 22.8242C83.7263 22.5776 82.5549 22.4234 81.445 22.4851C75.7726 22.7317 70.2543 23.934 64.9518 25.9071C59.0635 28.0959 57.6146 30.5313 58.0462 36.7587C58.0462 36.8203 58.0462 36.8512 58.0462 36.9128C58.5703 40.6431 59.8959 43.8492 63.8728 44.9591C66.709 45.699 69.6377 46.1614 72.5356 46.778ZM27.9884 46.593C29.9922 46.1922 32.6435 45.699 35.2947 45.1132C38.7784 44.3425 40.813 42.0304 41.5221 38.6392C42.7861 32.2886 42.2312 29.1132 36.4662 26.5544C29.9922 23.6874 23.1791 22.0535 15.9961 22.6084C12.0809 22.9167 10.0154 25.4755 10.7552 29.329C11.341 32.3194 12.1734 35.3097 13.1907 38.2076C14.7013 42.5236 17.9691 45.0207 22.4392 45.8839C23.9807 46.223 25.6454 46.3155 27.9884 46.593Z" fill="#1B87EC"/>
</svg>
